 http://img855.imageshack.us/img855/4236/thearcticpredator2010.jpg

Country.......: USA
Genre.........: Sci-Fi, Thriller, Action
Date release..: 07.08.2010 [World]
Director......: Victor Garcia
Writers.......: Rafael Jordan
Duration......: 82 min.
More..........: http://www.imdb.com/title/tt1471352

Pilot :
A dedicated explorer and his team search for a 19th century shipwreck off the coast of Antarctica. After the team digs up an alien ice creature that has been buried in the ice for over 200 hundred years, the creature kills the explorers and heads to the mainland, where it begins sucking the heat energy from Earth. 

Cats :
Erbi Ago   	 ...  	Cameron
Velizar Binev 	... 	Blake
Lucy Brown 	... 	Sedna
Dean Cain 	... 	JC
Louisa Clein 	... 	Shayla
Laia Gonzalez 	... 	Reyes
Mike Johnson 	... 	Gates
Iliana Lazarova 	... 	Nataliya
Mike Straub 	... 	Chandra
Steven Waddington 	... 	Hasslein
George Zlatarev 	... 	Dimitri 

Data Technical :
!!! SAMPLE !!!
Audio.....: Lector Polish
Subtitles.: None
Format                           : AVI
Format/Info                      : Audio Video Interleave
File size                        : 700 MiB
Duration                         : 1h 22mn
Overall bit rate                 : 1 188 Kbps
Writing application              : VirtualDubMod 1.5.10.2 (build 2540/release)
Writing library                  : VirtualDubMod build 2540/release
Video
ID                               : 0
Format                           : MPEG-4 Visual
Format profile                   : Advanced Simple@L5
Format settings, BVOP            : Yes
Format settings, QPel            : No
Format settings, GMC             : No warppoints
Format settings, Matrix          : Default (H.263)
Codec ID                         : XVID
Codec ID/Hint                    : XviD
Duration                         : 1h 22mn
Bit rate                         : 1 046 Kbps
Width                            : 640 pixels
Height                           : 352 pixels
Display aspect ratio             : 16:9
Frame rate                       : 25.000 fps
Color space                      : YUV
Chroma subsampling               : 4:2:0
Bit depth                        : 8 bits
Scan type                        : Progressive
Bits/(Pixel*Frame)               : 0.186
Stream size                      : 616 MiB (88%)
Writing library                  : XviD 1.2.1 (UTC 2008-12-04)
Audio
ID                               : 1
Format                           : MPEG Audio
Format version                   : Version 1
Format profile                   : Layer 3
Mode                             : Joint stereo
Codec ID                         : 55
Codec ID/Hint                    : MP3
Duration                         : 1h 22mn
Bit rate mode                    : Variable
Bit rate                         : 128 Kbps
Channel(s)                       : 2 channels
Sampling rate                    : 48.0 KHz
Stream size                      : 76.1 MiB (11%)
Alignment                        : Aligned on interleaves
Interleave, duration             : 24 ms (0.60 video frame)
Interleave, preload duration     : 508 ms
Writing library                  : LAME3.90.
Encoding settings                : -m j -V 4 -q 2 -lowpass 17.6 --abr 128

Screen : 
http://img11.imageshack.us/img11/4207/thearcticpredator2010s1.jpg 
http://img689.imageshack.us/img689/4711/thearcticpredator2010s2.jpg 
http://img692.imageshack.us/img692/1088/thearcticpredator2010s3.jpg 
http://img35.imageshack.us/img35/135/thearcticpredator2010s4.jpg 
http://img269.imageshack.us/img269/2850/thearcticpredator2010s5.jpg